<svg id="Capa_1" enable-background="new 0 0 512 512" height="512" fill='white' viewBox="0 0 512 512" width="512" xmlns="http://www.w3.org/2000/svg"><path d="m468 90c8.284 0 15-6.716 15-15v-60c0-8.284-6.716-15-15-15h-424c-8.284 0-15 6.716-15 15v60c0 8.284 6.716 15 15 15h12.5v332h-12.5c-8.284 0-15 6.716-15 15v60c0 8.284 6.716 15 15 15h424c8.284 0 15-6.716 15-15v-60c0-8.284-6.716-15-15-15h-12.5v-332zm-15 392h-394v-30h394zm-301.732-258.06c8.707 12.609 19.473 23.424 31.817 32.06-12.345 8.636-23.11 19.451-31.817 32.06-14.698 21.284-22.467 46.25-22.467 72.2v61.74h-42.301v-332h42.301v61.74c0 25.95 7.768 50.916 22.467 72.2zm209.464 64.12c-8.707-12.609-19.473-23.424-31.817-32.06 12.345-8.636 23.11-19.451 31.817-32.06 14.698-21.284 22.467-46.25 22.467-72.2v-61.74h42.301v332h-42.301v-61.74c0-25.95-7.768-50.916-22.467-72.2zm-7.533-136.32c0 40.048-24.033 75.503-61.228 90.326-12.569 5.008-12.563 22.863 0 27.868 37.194 14.823 61.228 50.278 61.228 90.326v41.934l-86.898-82.097c-5.781-5.462-14.82-5.462-20.602 0l-86.898 82.097v-41.934c0-40.048 24.033-75.503 61.228-90.326 12.569-5.008 12.563-22.863 0-27.868-37.194-14.823-61.228-50.278-61.228-90.326v-61.74h194.398zm-22.72 270.26h-148.958l74.479-70.364zm122.521-362c-10.403 0-383.442 0-394 0v-30h394z"/></svg>